<svg xmlns="http://www.w3.org/2000/svg" width="1000" height="1000" viewBox="0 0 1000 1000" fill="none">
<g clip-path="url(#clip0_432_12)">
<path d="M552.848 860.504C552.613 860.867 552.368 861.133 552.112 861.304C551.877 861.453 551.547 861.528 551.12 861.528C550.693 861.528 550.256 861.421 549.808 861.208C549.36 860.995 548.859 860.771 548.304 860.536C547.749 860.28 547.109 860.045 546.384 859.832C545.68 859.619 544.859 859.512 543.92 859.512C542.491 859.512 541.381 859.811 540.592 860.408C539.803 860.984 539.408 861.752 539.408 862.712C539.408 863.373 539.632 863.928 540.08 864.376C540.528 864.824 541.115 865.219 541.84 865.56C542.587 865.88 543.429 866.189 544.368 866.488C545.307 866.765 546.267 867.075 547.248 867.416C548.251 867.757 549.221 868.152 550.16 868.6C551.099 869.048 551.931 869.613 552.656 870.296C553.403 870.957 554 871.768 554.448 872.728C554.896 873.667 555.12 874.808 555.12 876.152C555.12 877.752 554.821 879.235 554.224 880.6C553.648 881.944 552.795 883.107 551.664 884.088C550.533 885.069 549.125 885.837 547.44 886.392C545.755 886.947 543.813 887.224 541.616 887.224C540.485 887.224 539.365 887.117 538.256 886.904C537.147 886.712 536.091 886.435 535.088 886.072C534.085 885.688 533.147 885.251 532.272 884.76C531.397 884.269 530.64 883.736 530 883.16L532.048 879.864C532.283 879.48 532.571 879.181 532.912 878.968C533.275 878.755 533.733 878.648 534.288 878.648C534.821 878.648 535.312 878.787 535.76 879.064C536.208 879.32 536.709 879.608 537.264 879.928C537.819 880.227 538.469 880.515 539.216 880.792C539.984 881.048 540.933 881.176 542.064 881.176C542.917 881.176 543.653 881.08 544.272 880.888C544.891 880.696 545.392 880.44 545.776 880.12C546.16 879.779 546.437 879.405 546.608 879C546.8 878.573 546.896 878.136 546.896 877.688C546.896 876.963 546.661 876.376 546.192 875.928C545.744 875.459 545.147 875.053 544.4 874.712C543.675 874.371 542.832 874.061 541.872 873.784C540.912 873.507 539.931 873.197 538.928 872.856C537.947 872.515 536.976 872.109 536.016 871.64C535.077 871.171 534.235 870.584 533.488 869.88C532.763 869.155 532.165 868.269 531.696 867.224C531.248 866.179 531.024 864.909 531.024 863.416C531.024 862.051 531.291 860.76 531.824 859.544C532.357 858.307 533.157 857.219 534.224 856.28C535.291 855.341 536.613 854.595 538.192 854.04C539.792 853.485 541.637 853.208 543.728 853.208C546.075 853.208 548.208 853.592 550.128 854.36C552.048 855.128 553.627 856.131 554.864 857.368L552.848 860.504Z" fill="#D91009"/>
<path d="M581.576 866.328C581.576 865.411 581.449 864.536 581.193 863.704C580.958 862.872 580.574 862.136 580.041 861.496C579.507 860.856 578.835 860.355 578.025 859.992C577.214 859.608 576.243 859.416 575.113 859.416C573.001 859.416 571.347 860.013 570.153 861.208C568.958 862.403 568.179 864.109 567.817 866.328H581.576ZM567.688 871.576C567.966 874.669 568.84 876.931 570.312 878.36C571.806 879.789 573.747 880.504 576.137 880.504C577.353 880.504 578.398 880.365 579.273 880.088C580.169 879.789 580.947 879.469 581.609 879.128C582.291 878.765 582.899 878.445 583.433 878.168C583.987 877.869 584.531 877.72 585.065 877.72C585.747 877.72 586.281 877.976 586.665 878.488L589.225 881.688C588.286 882.776 587.251 883.683 586.121 884.408C584.99 885.112 583.817 885.677 582.601 886.104C581.385 886.509 580.158 886.787 578.921 886.936C577.683 887.107 576.489 887.192 575.337 887.192C573.033 887.192 570.878 886.819 568.873 886.072C566.889 885.304 565.15 884.184 563.657 882.712C562.185 881.219 561.022 879.373 560.169 877.176C559.315 874.979 558.889 872.429 558.889 869.528C558.889 867.288 559.251 865.176 559.976 863.192C560.723 861.208 561.79 859.48 563.176 858.008C564.563 856.536 566.249 855.373 568.233 854.52C570.217 853.645 572.457 853.208 574.953 853.208C577.065 853.208 579.006 853.549 580.777 854.232C582.569 854.893 584.105 855.864 585.385 857.144C586.686 858.424 587.689 860.003 588.393 861.88C589.118 863.736 589.481 865.859 589.481 868.248C589.481 868.909 589.449 869.453 589.385 869.88C589.321 870.307 589.214 870.648 589.065 870.904C588.915 871.16 588.713 871.341 588.457 871.448C588.201 871.533 587.87 871.576 587.465 871.576H567.688Z" fill="#D91009"/>
<path d="M603.249 859.16C604.294 857.283 605.5 855.8 606.865 854.712C608.23 853.624 609.83 853.08 611.665 853.08C613.158 853.08 614.374 853.432 615.313 854.136L614.737 860.664C614.63 861.091 614.46 861.389 614.225 861.56C614.012 861.709 613.713 861.784 613.329 861.784C612.988 861.784 612.497 861.741 611.857 861.656C611.217 861.549 610.62 861.496 610.065 861.496C609.254 861.496 608.529 861.613 607.889 861.848C607.27 862.083 606.716 862.413 606.225 862.84C605.734 863.267 605.286 863.789 604.881 864.408C604.497 865.027 604.134 865.731 603.793 866.52V886.712H594.961V853.72H600.177C601.073 853.72 601.692 853.88 602.033 854.2C602.374 854.52 602.62 855.075 602.769 855.864L603.249 859.16Z" fill="#D91009"/>
<path d="M649.454 853.72L636.494 886.712H628.494L615.534 853.72H622.862C623.502 853.72 624.035 853.869 624.462 854.168C624.889 854.467 625.187 854.851 625.358 855.32L630.894 871.64C631.257 872.749 631.577 873.837 631.854 874.904C632.131 875.949 632.377 877.005 632.59 878.072C632.825 877.005 633.081 875.949 633.358 874.904C633.657 873.837 633.998 872.749 634.382 871.64L640.11 855.32C640.259 854.851 640.547 854.467 640.974 854.168C641.401 853.869 641.902 853.72 642.478 853.72H649.454Z" fill="#D91009"/>
<path d="M673.077 866.328C673.077 865.411 672.949 864.536 672.693 863.704C672.458 862.872 672.074 862.136 671.54 861.496C671.007 860.856 670.335 860.355 669.525 859.992C668.714 859.608 667.743 859.416 666.613 859.416C664.501 859.416 662.847 860.013 661.652 861.208C660.458 862.403 659.679 864.109 659.316 866.328H673.077ZM659.189 871.576C659.466 874.669 660.34 876.931 661.812 878.36C663.306 879.789 665.247 880.504 667.637 880.504C668.853 880.504 669.898 880.365 670.773 880.088C671.669 879.789 672.447 879.469 673.109 879.128C673.791 878.765 674.399 878.445 674.932 878.168C675.487 877.869 676.031 877.72 676.564 877.72C677.247 877.72 677.781 877.976 678.165 878.488L680.725 881.688C679.786 882.776 678.751 883.683 677.62 884.408C676.49 885.112 675.316 885.677 674.1 886.104C672.884 886.509 671.658 886.787 670.421 886.936C669.183 887.107 667.989 887.192 666.837 887.192C664.533 887.192 662.378 886.819 660.372 886.072C658.388 885.304 656.65 884.184 655.157 882.712C653.685 881.219 652.522 879.373 651.669 877.176C650.815 874.979 650.388 872.429 650.388 869.528C650.388 867.288 650.751 865.176 651.477 863.192C652.223 861.208 653.29 859.48 654.676 858.008C656.063 856.536 657.748 855.373 659.732 854.52C661.716 853.645 663.956 853.208 666.452 853.208C668.564 853.208 670.506 853.549 672.277 854.232C674.069 854.893 675.605 855.864 676.885 857.144C678.186 858.424 679.189 860.003 679.893 861.88C680.618 863.736 680.98 865.859 680.98 868.248C680.98 868.909 680.949 869.453 680.885 869.88C680.821 870.307 680.714 870.648 680.564 870.904C680.415 871.16 680.212 871.341 679.956 871.448C679.7 871.533 679.37 871.576 678.965 871.576H659.189Z" fill="#D91009"/>
<path d="M694.749 859.16C695.794 857.283 697 855.8 698.365 854.712C699.73 853.624 701.33 853.08 703.165 853.08C704.658 853.08 705.874 853.432 706.813 854.136L706.237 860.664C706.13 861.091 705.96 861.389 705.725 861.56C705.512 861.709 705.213 861.784 704.829 861.784C704.488 861.784 703.997 861.741 703.357 861.656C702.717 861.549 702.12 861.496 701.565 861.496C700.754 861.496 700.029 861.613 699.389 861.848C698.77 862.083 698.216 862.413 697.725 862.84C697.234 863.267 696.786 863.789 696.381 864.408C695.997 865.027 695.634 865.731 695.293 866.52V886.712H686.461V853.72H691.677C692.573 853.72 693.192 853.88 693.533 854.2C693.874 854.52 694.12 855.075 694.269 855.864L694.749 859.16Z" fill="#D91009"/>
<path d="M719.482 839V886.712H710.65V839H719.482Z" fill="#D91009"/>
<path d="M747.764 866.328C747.764 865.411 747.636 864.536 747.38 863.704C747.145 862.872 746.761 862.136 746.228 861.496C745.695 860.856 745.023 860.355 744.212 859.992C743.401 859.608 742.431 859.416 741.3 859.416C739.188 859.416 737.535 860.013 736.34 861.208C735.145 862.403 734.367 864.109 734.004 866.328H747.764ZM733.876 871.576C734.153 874.669 735.028 876.931 736.5 878.36C737.993 879.789 739.935 880.504 742.324 880.504C743.54 880.504 744.585 880.365 745.46 880.088C746.356 879.789 747.135 879.469 747.796 879.128C748.479 878.765 749.087 878.445 749.62 878.168C750.175 877.869 750.719 877.72 751.252 877.72C751.935 877.72 752.468 877.976 752.852 878.488L755.412 881.688C754.473 882.776 753.439 883.683 752.308 884.408C751.177 885.112 750.004 885.677 748.788 886.104C747.572 886.509 746.345 886.787 745.108 886.936C743.871 887.107 742.676 887.192 741.524 887.192C739.22 887.192 737.065 886.819 735.06 886.072C733.076 885.304 731.337 884.184 729.844 882.712C728.372 881.219 727.209 879.373 726.356 877.176C725.503 874.979 725.076 872.429 725.076 869.528C725.076 867.288 725.439 865.176 726.164 863.192C726.911 861.208 727.977 859.48 729.364 858.008C730.751 856.536 732.436 855.373 734.42 854.52C736.404 853.645 738.644 853.208 741.14 853.208C743.252 853.208 745.193 853.549 746.964 854.232C748.756 854.893 750.292 855.864 751.572 857.144C752.873 858.424 753.876 860.003 754.58 861.88C755.305 863.736 755.668 865.859 755.668 868.248C755.668 868.909 755.636 869.453 755.572 869.88C755.508 870.307 755.401 870.648 755.252 870.904C755.103 871.16 754.9 871.341 754.644 871.448C754.388 871.533 754.057 871.576 753.652 871.576H733.876Z" fill="#D91009"/>
<path d="M781.661 860.504C781.426 860.867 781.18 861.133 780.924 861.304C780.69 861.453 780.359 861.528 779.932 861.528C779.506 861.528 779.068 861.421 778.62 861.208C778.172 860.995 777.671 860.771 777.117 860.536C776.562 860.28 775.922 860.045 775.197 859.832C774.493 859.619 773.671 859.512 772.732 859.512C771.303 859.512 770.194 859.811 769.404 860.408C768.615 860.984 768.221 861.752 768.221 862.712C768.221 863.373 768.445 863.928 768.893 864.376C769.341 864.824 769.927 865.219 770.652 865.56C771.399 865.88 772.242 866.189 773.18 866.488C774.119 866.765 775.079 867.075 776.061 867.416C777.063 867.757 778.034 868.152 778.973 868.6C779.911 869.048 780.743 869.613 781.469 870.296C782.215 870.957 782.812 871.768 783.26 872.728C783.708 873.667 783.932 874.808 783.932 876.152C783.932 877.752 783.634 879.235 783.036 880.6C782.46 881.944 781.607 883.107 780.477 884.088C779.346 885.069 777.938 885.837 776.253 886.392C774.567 886.947 772.626 887.224 770.428 887.224C769.298 887.224 768.178 887.117 767.068 886.904C765.959 886.712 764.903 886.435 763.9 886.072C762.898 885.688 761.959 885.251 761.085 884.76C760.21 884.269 759.453 883.736 758.812 883.16L760.861 879.864C761.095 879.48 761.383 879.181 761.725 878.968C762.087 878.755 762.546 878.648 763.1 878.648C763.634 878.648 764.124 878.787 764.572 879.064C765.02 879.32 765.522 879.608 766.077 879.928C766.631 880.227 767.282 880.515 768.029 880.792C768.797 881.048 769.746 881.176 770.876 881.176C771.73 881.176 772.466 881.08 773.085 880.888C773.703 880.696 774.205 880.44 774.589 880.12C774.973 879.779 775.25 879.405 775.421 879C775.613 878.573 775.708 878.136 775.708 877.688C775.708 876.963 775.474 876.376 775.005 875.928C774.557 875.459 773.959 875.053 773.212 874.712C772.487 874.371 771.644 874.061 770.684 873.784C769.724 873.507 768.743 873.197 767.74 872.856C766.759 872.515 765.789 872.109 764.829 871.64C763.89 871.171 763.047 870.584 762.301 869.88C761.575 869.155 760.978 868.269 760.508 867.224C760.06 866.179 759.837 864.909 759.837 863.416C759.837 862.051 760.103 860.76 760.637 859.544C761.17 858.307 761.97 857.219 763.036 856.28C764.103 855.341 765.426 854.595 767.005 854.04C768.605 853.485 770.45 853.208 772.54 853.208C774.887 853.208 777.021 853.592 778.941 854.36C780.861 855.128 782.439 856.131 783.676 857.368L781.661 860.504Z" fill="#D91009"/>
<path d="M809.973 860.504C809.738 860.867 809.493 861.133 809.237 861.304C809.002 861.453 808.672 861.528 808.245 861.528C807.818 861.528 807.381 861.421 806.933 861.208C806.485 860.995 805.984 860.771 805.429 860.536C804.874 860.28 804.234 860.045 803.509 859.832C802.805 859.619 801.984 859.512 801.045 859.512C799.616 859.512 798.506 859.811 797.717 860.408C796.928 860.984 796.533 861.752 796.533 862.712C796.533 863.373 796.757 863.928 797.205 864.376C797.653 864.824 798.24 865.219 798.965 865.56C799.712 865.88 800.554 866.189 801.493 866.488C802.432 866.765 803.392 867.075 804.373 867.416C805.376 867.757 806.346 868.152 807.285 868.6C808.224 869.048 809.056 869.613 809.781 870.296C810.528 870.957 811.125 871.768 811.573 872.728C812.021 873.667 812.245 874.808 812.245 876.152C812.245 877.752 811.946 879.235 811.349 880.6C810.773 881.944 809.92 883.107 808.789 884.088C807.658 885.069 806.25 885.837 804.565 886.392C802.88 886.947 800.938 887.224 798.741 887.224C797.61 887.224 796.49 887.117 795.381 886.904C794.272 886.712 793.216 886.435 792.213 886.072C791.21 885.688 790.272 885.251 789.397 884.76C788.522 884.269 787.765 883.736 787.125 883.16L789.173 879.864C789.408 879.48 789.696 879.181 790.037 878.968C790.4 878.755 790.858 878.648 791.413 878.648C791.946 878.648 792.437 878.787 792.885 879.064C793.333 879.32 793.834 879.608 794.389 879.928C794.944 880.227 795.594 880.515 796.341 880.792C797.109 881.048 798.058 881.176 799.189 881.176C800.042 881.176 800.778 881.08 801.397 880.888C802.016 880.696 802.517 880.44 802.901 880.12C803.285 879.779 803.562 879.405 803.733 879C803.925 878.573 804.021 878.136 804.021 877.688C804.021 876.963 803.786 876.376 803.317 875.928C802.869 875.459 802.272 875.053 801.525 874.712C800.8 874.371 799.957 874.061 798.997 873.784C798.037 873.507 797.056 873.197 796.053 872.856C795.072 872.515 794.101 872.109 793.141 871.64C792.202 871.171 791.36 870.584 790.613 869.88C789.888 869.155 789.29 868.269 788.821 867.224C788.373 866.179 788.149 864.909 788.149 863.416C788.149 862.051 788.416 860.76 788.949 859.544C789.482 858.307 790.282 857.219 791.349 856.28C792.416 855.341 793.738 854.595 795.317 854.04C796.917 853.485 798.762 853.208 800.853 853.208C803.2 853.208 805.333 853.592 807.253 854.36C809.173 855.128 810.752 856.131 811.989 857.368L809.973 860.504Z" fill="#D91009"/>
<path d="M855.63 840.28L836.941 886.712H828.237L809.549 840.28H817.293C818.125 840.28 818.798 840.483 819.31 840.888C819.843 841.272 820.237 841.773 820.493 842.392L830.542 869.144C830.926 870.147 831.299 871.245 831.661 872.44C832.045 873.613 832.397 874.851 832.717 876.152C832.995 874.851 833.293 873.613 833.613 872.44C833.955 871.245 834.318 870.147 834.702 869.144L844.686 842.392C844.899 841.859 845.272 841.379 845.806 840.952C846.36 840.504 847.043 840.28 847.854 840.28H855.63Z" fill="#D91009"/>
<path d="M874.452 866.328C874.452 865.411 874.324 864.536 874.068 863.704C873.833 862.872 873.449 862.136 872.915 861.496C872.382 860.856 871.71 860.355 870.9 859.992C870.089 859.608 869.118 859.416 867.987 859.416C865.875 859.416 864.222 860.013 863.027 861.208C861.833 862.403 861.054 864.109 860.691 866.328H874.452ZM860.564 871.576C860.841 874.669 861.715 876.931 863.188 878.36C864.681 879.789 866.622 880.504 869.012 880.504C870.228 880.504 871.273 880.365 872.147 880.088C873.043 879.789 873.822 879.469 874.483 879.128C875.166 878.765 875.774 878.445 876.307 878.168C876.862 877.869 877.406 877.72 877.94 877.72C878.622 877.72 879.155 877.976 879.539 878.488L882.1 881.688C881.161 882.776 880.126 883.683 878.996 884.408C877.865 885.112 876.691 885.677 875.475 886.104C874.259 886.509 873.033 886.787 871.796 886.936C870.558 887.107 869.363 887.192 868.211 887.192C865.907 887.192 863.753 886.819 861.747 886.072C859.763 885.304 858.025 884.184 856.531 882.712C855.059 881.219 853.897 879.373 853.043 877.176C852.19 874.979 851.763 872.429 851.763 869.528C851.763 867.288 852.126 865.176 852.852 863.192C853.598 861.208 854.665 859.48 856.052 858.008C857.438 856.536 859.124 855.373 861.108 854.52C863.092 853.645 865.332 853.208 867.828 853.208C869.94 853.208 871.881 853.549 873.651 854.232C875.443 854.893 876.979 855.864 878.259 857.144C879.561 858.424 880.564 860.003 881.268 861.88C881.993 863.736 882.355 865.859 882.355 868.248C882.355 868.909 882.323 869.453 882.259 869.88C882.195 870.307 882.089 870.648 881.94 870.904C881.79 871.16 881.588 871.341 881.332 871.448C881.076 871.533 880.745 871.576 880.34 871.576H860.564Z" fill="#D91009"/>
<path d="M911.772 861.08C911.516 861.421 911.26 861.688 911.004 861.88C910.748 862.051 910.385 862.136 909.916 862.136C909.489 862.136 909.073 862.019 908.668 861.784C908.284 861.528 907.836 861.261 907.324 860.984C906.812 860.685 906.204 860.419 905.5 860.184C904.796 859.928 903.921 859.8 902.876 859.8C901.553 859.8 900.401 860.045 899.42 860.536C898.46 861.005 897.66 861.688 897.02 862.584C896.38 863.48 895.9 864.568 895.58 865.848C895.281 867.128 895.132 868.568 895.132 870.168C895.132 873.539 895.804 876.12 897.148 877.912C898.513 879.704 900.369 880.6 902.716 880.6C903.527 880.6 904.22 880.536 904.796 880.408C905.393 880.259 905.905 880.077 906.332 879.864C906.78 879.651 907.164 879.416 907.484 879.16C907.804 878.904 908.103 878.669 908.38 878.456C908.679 878.243 908.967 878.072 909.244 877.944C909.543 877.795 909.873 877.72 910.236 877.72C910.919 877.72 911.452 877.976 911.836 878.488L914.364 881.688C913.425 882.776 912.423 883.683 911.356 884.408C910.289 885.112 909.18 885.677 908.028 886.104C906.897 886.509 905.745 886.787 904.572 886.936C903.399 887.107 902.236 887.192 901.084 887.192C899.057 887.192 897.137 886.819 895.324 886.072C893.511 885.304 891.921 884.195 890.556 882.744C889.191 881.293 888.103 879.512 887.292 877.4C886.503 875.288 886.108 872.877 886.108 870.168C886.108 867.757 886.46 865.517 887.164 863.448C887.868 861.379 888.903 859.587 890.268 858.072C891.633 856.557 893.319 855.373 895.324 854.52C897.351 853.645 899.687 853.208 902.332 853.208C904.849 853.208 907.057 853.613 908.956 854.424C910.855 855.235 912.561 856.408 914.076 857.944L911.772 861.08Z" fill="#D91009"/>
<path d="M930.228 887.224C928.735 887.224 927.412 887.011 926.26 886.584C925.108 886.136 924.137 885.507 923.348 884.696C922.559 883.885 921.961 882.904 921.556 881.752C921.151 880.6 920.948 879.299 920.948 877.848V860.056H917.844C917.375 860.056 916.969 859.907 916.628 859.608C916.308 859.309 916.148 858.861 916.148 858.264V854.808L921.428 853.848L923.22 845.304C923.455 844.344 924.105 843.864 925.172 843.864H929.78V853.912H938.292V860.056H929.78V877.272C929.78 878.189 929.993 878.915 930.42 879.448C930.868 879.981 931.497 880.248 932.308 880.248C932.735 880.248 933.097 880.205 933.396 880.12C933.695 880.013 933.951 879.907 934.164 879.8C934.377 879.672 934.569 879.565 934.74 879.48C934.932 879.373 935.124 879.32 935.316 879.32C935.572 879.32 935.785 879.384 935.956 879.512C936.127 879.619 936.297 879.811 936.468 880.088L939.124 884.312C937.908 885.272 936.532 885.997 934.996 886.488C933.46 886.979 931.871 887.224 930.228 887.224Z" fill="#D91009"/>
<path d="M957.591 853.208C960.066 853.208 962.316 853.603 964.343 854.392C966.37 855.181 968.108 856.312 969.559 857.784C971.01 859.235 972.13 861.005 972.919 863.096C973.708 865.187 974.103 867.544 974.103 870.168C974.103 872.792 973.708 875.16 972.919 877.272C972.13 879.363 971.01 881.144 969.559 882.616C968.108 884.088 966.37 885.219 964.343 886.008C962.316 886.797 960.066 887.192 957.591 887.192C955.095 887.192 952.823 886.797 950.775 886.008C948.748 885.219 947.01 884.088 945.559 882.616C944.108 881.144 942.978 879.363 942.167 877.272C941.378 875.16 940.983 872.792 940.983 870.168C940.983 867.544 941.378 865.187 942.167 863.096C942.978 861.005 944.108 859.235 945.559 857.784C947.01 856.312 948.748 855.181 950.775 854.392C952.823 853.603 955.095 853.208 957.591 853.208ZM957.591 880.568C960.108 880.568 961.975 879.704 963.191 877.976C964.407 876.227 965.015 873.635 965.015 870.2C965.015 866.787 964.407 864.216 963.191 862.488C961.975 860.739 960.108 859.864 957.591 859.864C955.01 859.864 953.111 860.739 951.895 862.488C950.679 864.216 950.071 866.787 950.071 870.2C950.071 873.635 950.679 876.227 951.895 877.976C953.111 879.704 955.01 880.568 957.591 880.568Z" fill="#D91009"/>
<path d="M987.936 859.16C988.982 857.283 990.187 855.8 991.552 854.712C992.918 853.624 994.518 853.08 996.353 853.08C997.846 853.08 999.062 853.432 1000 854.136L999.424 860.664C999.318 861.091 999.147 861.389 998.913 861.56C998.699 861.709 998.401 861.784 998.017 861.784C997.675 861.784 997.184 861.741 996.544 861.656C995.904 861.549 995.307 861.496 994.753 861.496C993.942 861.496 993.217 861.613 992.577 861.848C991.958 862.083 991.403 862.413 990.913 862.84C990.422 863.267 989.974 863.789 989.569 864.408C989.185 865.027 988.822 865.731 988.48 866.52V886.712H979.648V853.72H984.865C985.761 853.72 986.379 853.88 986.72 854.2C987.062 854.52 987.307 855.075 987.457 855.864L987.936 859.16Z" fill="#D91009"/>
<path d="M574.996 547.836L472.686 516.198L103.837 887.394L538.323 664.634L574.996 547.836Z" fill="#D91009"/>
<path d="M244.556 520.078L288.106 487.881L321.479 474.282L349.227 477.848L461.434 512.772L99.6006 876.906" fill="#D91009"/>
<path d="M0 112L375.135 435.792L353.672 467.989L320.056 463.549L283.903 478.267L0 112Z" fill="#D91009"/>
<path d="M440.945 355.246L363.883 471.59L470.116 504.452L440.945 355.246Z" fill="#D91009"/>
<path d="M578.33 537.907L481.438 508.052L450.773 351.191L578.33 537.907Z" fill="#D91009"/>
<path d="M613.995 703.124L552.839 652.224L585.657 548.745L609.932 583.984L613.995 703.124Z" fill="#D91009"/>
<path d="M849.141 408.803L865.706 461.347L624.414 703.124L619.934 568.602L849.141 408.803Z" fill="#D91009"/>
<path d="M859.073 406.216L908.317 421.563L1000 590.101L883.556 468.094L875.499 457.397L859.073 406.216Z" fill="#D91009"/>
<path d="M608.578 563.672L671.193 520.043L660.392 475.191L492.273 360.175L466.713 342.556L459.663 345.772L608.578 563.672Z" fill="#D91009"/>
<path d="M800.938 171.221L488.626 344.933L571.662 401.916L800.938 171.221Z" fill="#D91009"/>
<path d="M660.566 462.745L580.622 407.859L809.064 177.898L727.939 407.265L660.566 462.745Z" fill="#D91009"/>
</g>
<defs>
<clipPath id="clip0_432_12">
<rect width="1000" height="1000" fill="white"/>
</clipPath>
</defs>
</svg>
